<svg id="Group_451" data-name="Group 451" xmlns="http://www.w3.org/2000/svg" width="338" height="66" viewBox="0 0 338 66">
  <path id="Union_4" data-name="Union 4" d="M141.667,47.143H19a19,19,0,0,1-19-19V19A19,19,0,0,1,19,0H319a19,19,0,0,1,19,19v9.143a19,19,0,0,1-19,19H168.333L155,66Z" fill="#c6c6c7"/>
  <g id="Group_450" data-name="Group 450" transform="translate(41 8)">
    <path id="Icon_awesome-question-circle" data-name="Icon awesome-question-circle" d="M15.582,8.072A7.51,7.51,0,1,1,8.072.563,7.509,7.509,0,0,1,15.582,8.072ZM8.274,3.046A3.922,3.922,0,0,0,4.745,4.976a.364.364,0,0,0,.082.492l1.051.8a.363.363,0,0,0,.5-.064c.541-.686.912-1.084,1.735-1.084.619,0,1.384.4,1.384,1,0,.453-.374.686-.985,1.029-.712.4-1.655.9-1.655,2.14V9.4a.363.363,0,0,0,.363.363h1.7A.363.363,0,0,0,9.284,9.4v-.04c0-.862,2.519-.9,2.519-3.23C11.8,4.378,9.981,3.046,8.274,3.046Zm-.2,7.51a1.393,1.393,0,1,0,1.393,1.393A1.394,1.394,0,0,0,8.072,10.555Z" transform="translate(261.365 6.439)" fill="#fff"/>
  </g>
</svg>
